<svg xmlns="http://www.w3.org/2000/svg" width="895.541" height="111.818" viewBox="0 0 895.541 111.818">
  <g id="Group_446" data-name="Group 446" transform="translate(-2134.753 -287.799)">
    <path id="Path_891" data-name="Path 891" d="M2192.549,331.455l-57.8-42.586v109l28.9-22.814V359.846l-15.716,9.97V315.063l44.614,31.094Z" transform="translate(0 0.34)" fill="#d3bb0d"/>
    <path id="Path_892" data-name="Path 892" d="M2158.988,355.679l58.7,43.938V287.8l-14.421,11.548V372.8l-44.276-33.7Z" transform="translate(7.705 0)" fill="#d3bb0d"/>
    <g id="Group_444" data-name="Group 444" transform="translate(2258.32 309.218)">
      <g id="Group_443" data-name="Group 443" transform="translate(0 0)">
        <path id="Path_893" data-name="Path 893" d="M2313.6,304.845l-12.754,16.561H2278.1V368.52h-19.7V321.406h-29.888l12.755-16.561Z" transform="translate(-2228.514 -303.799)" fill="#fff"/>
        <path id="Path_894" data-name="Path 894" d="M2402.442,368.52h-26.366l-14.182-16.847h-30.267V368.52h-19.7V335.969h55.394c6.092,0,10.851-2.761,10.851-7.138,0-4.95-4.094-7.425-10.851-7.425h-55.394l12.849-16.561H2365.7c14.467,0,32.742,4.569,32.742,22.747,0,9.9-6.189,18.084-16.656,20.178,2.188,1.618,4.566,3.9,8.944,8.375Z" transform="translate(-2201.997 -303.799)" fill="#fff"/>
        <path id="Path_895" data-name="Path 895" d="M2474.347,352.148l-12.659,16.371h-61.295V304.845h73.764L2461.4,321.406h-41.213v7.614h50.443l-11.325,14.468h-39.118v8.661Z" transform="translate(-2173.874 -303.799)" fill="#fff"/>
        <path id="Path_896" data-name="Path 896" d="M2521.15,328.8c5.618,9.8,8.09,14.563,10.282,19.034,2.094-4.472,4.567-9.136,10.181-18.94l10.188-18.083c2.281-4.093,5.708-6.758,10.848-6.758,4.951,0,9.33,2.855,11.043,8.756l16.084,55.965h-19.608l-6-22.176c-2-7.234-3.331-12.374-4.378-17.512-2.095,4.472-4.472,9.327-8.851,17.607l-8.566,15.99c-3.331,6.282-6.568,7.138-11.326,7.138s-8-.855-11.325-7.138l-8.566-16.085c-4.664-8.757-6.949-13.23-8.947-17.512-.954,5.044-2.379,10.373-4.285,17.512l-5.995,22.176H2472.61l16.466-55.965c1.714-5.9,6.188-8.756,11.137-8.756,5.043,0,8.473,2.57,10.754,6.758Z" transform="translate(-2150.915 -304.051)" fill="#fff"/>
        <path id="Path_897" data-name="Path 897" d="M2609.57,368.772l11.9-16.371h15.991c3.806,0,8.28,0,11.323.191-1.712-2.285-4.375-6.188-6.47-9.232l-11.422-16.847L2601,368.772h-23.317l40.83-57.583c2.665-3.713,6.567-7.138,12.755-7.138,5.9,0,9.8,3.141,12.563,7.138l39.785,57.583Z" transform="translate(-2117.511 -304.051)" fill="#fff"/>
        <path id="Path_898" data-name="Path 898" d="M2758.182,368.52H2728.39l-19.225-16.752c-6.566-5.71-9.615-8.471-11.8-10.659.095,2.951.285,6.09.285,9.137V368.52h-19.8V304.845h19.8V319.6c0,3.9-.19,7.8-.382,11.136,2.474-2.284,5.9-5.521,11.708-10.375l18.37-15.514H2755.9l-24.368,18.274c-8.47,6.377-12.373,9.233-16.465,11.708,3.616,2.474,8.563,6,16.75,12.657Z" transform="translate(-2085.668 -303.799)" fill="#fff"/>
        <path id="Path_899" data-name="Path 899" d="M2832.112,352.148l-12.659,16.371h-61.3V304.845h73.764l-12.753,16.561h-41.213v7.614H2828.4l-11.327,14.468h-39.117v8.661Z" transform="translate(-2060.139 -303.799)" fill="#fff"/>
      </g>
    </g>
    <path id="Path_900" data-name="Path 900" d="M2178.124,393.628V292.934l-7.479-5.134-6.941,5.558v99.224" transform="translate(9.204 0)" fill="#d3bb0d"/>
    <path id="Path_901" data-name="Path 901" d="M2156.407,301.015h33.621l.033-6.608-.175-6.608h-33.131" transform="translate(6.884)" fill="#d3bb0d"/>
  </g>
</svg>
