<svg xmlns="http://www.w3.org/2000/svg" width="205.322" height="25.637" viewBox="0 0 205.322 25.637">
  <g id="Group_443" data-name="Group 443" transform="translate(-2134.753 -287.799)">
    <path id="Path_891" data-name="Path 891" d="M2148,298.633l-13.251-9.764v24.991l6.625-5.231v-3.487l-3.6,2.286V294.874L2148,302Z" transform="translate(0 -0.746)" fill="#d3bb0d"/>
    <path id="Path_892" data-name="Path 892" d="M2158.988,303.363l13.457,10.074V287.8l-3.306,2.648v16.841l-10.151-7.727Z" transform="translate(-16.912 -0.001)" fill="#d3bb0d"/>
    <g id="Group_444" data-name="Group 444" transform="translate(2163.083 292.71)">
      <g id="Group_443-2" data-name="Group 443" transform="translate(0 0)">
        <path id="Path_893" data-name="Path 893" d="M2248.023,304.845l-2.924,3.8h-5.215v10.8h-4.517v-10.8h-6.853l2.924-3.8Z" transform="translate(-2228.514 -304.605)" fill="#fff"/>
        <path id="Path_894" data-name="Path 894" d="M2332.679,319.444h-6.045l-3.251-3.862h-6.939v3.862h-4.517v-7.463h12.7c1.4,0,2.488-.633,2.488-1.636,0-1.135-.938-1.7-2.488-1.7h-12.7l2.946-3.8h9.384c3.317,0,7.507,1.048,7.507,5.215a4.572,4.572,0,0,1-3.819,4.626,18.671,18.671,0,0,1,2.051,1.92Z" transform="translate(-2286.722 -304.605)" fill="#fff"/>
        <path id="Path_895" data-name="Path 895" d="M2417.349,315.69l-2.9,3.753h-14.053v-14.6h16.912l-2.924,3.8h-9.449v1.746H2416.5l-2.6,3.317h-8.969v1.986Z" transform="translate(-2348.458 -304.605)" fill="#fff"/>
        <path id="Path_896" data-name="Path 896" d="M2483.739,309.725c1.288,2.248,1.855,3.339,2.357,4.364.48-1.025,1.047-2.095,2.334-4.342l2.336-4.146a2.718,2.718,0,0,1,2.487-1.549,2.567,2.567,0,0,1,2.532,2.008l3.688,12.831h-4.5l-1.375-5.084c-.458-1.659-.764-2.837-1-4.015-.48,1.025-1.025,2.138-2.029,4.037l-1.964,3.666a2.878,2.878,0,0,1-5.193,0l-1.964-3.688c-1.069-2.008-1.593-3.033-2.051-4.015-.219,1.156-.545,2.378-.982,4.015l-1.375,5.084h-4.43l3.775-12.831a2.59,2.59,0,0,1,2.553-2.008,2.674,2.674,0,0,1,2.466,1.549Z" transform="translate(-2398.854 -304.051)" fill="#fff"/>
        <path id="Path_897" data-name="Path 897" d="M2585,318.89l2.728-3.753h3.666c.873,0,1.9,0,2.6.044-.393-.524-1-1.419-1.483-2.117l-2.619-3.862-6.852,9.689h-5.346l9.361-13.2a3.492,3.492,0,0,1,2.924-1.637,3.386,3.386,0,0,1,2.88,1.637l9.122,13.2Z" transform="translate(-2472.181 -304.051)" fill="#fff"/>
        <path id="Path_898" data-name="Path 898" d="M2696.269,319.444h-6.83l-4.408-3.841c-1.506-1.309-2.2-1.942-2.706-2.444.022.677.065,1.4.065,2.095v4.19h-4.539v-14.6h4.539v3.382c0,.895-.044,1.789-.088,2.553.567-.524,1.354-1.266,2.684-2.379l4.212-3.557h6.547l-5.587,4.19a46.194,46.194,0,0,1-3.775,2.684c.829.567,1.963,1.375,3.84,2.9Z" transform="translate(-2542.081 -304.605)" fill="#fff"/>
        <path id="Path_899" data-name="Path 899" d="M2775.113,315.69l-2.9,3.753h-14.054v-14.6h16.912l-2.924,3.8H2762.7v1.746h11.565l-2.6,3.317H2762.7v1.986Z" transform="translate(-2598.121 -304.605)" fill="#fff"/>
      </g>
    </g>
    <path id="Path_900" data-name="Path 900" d="M2167.01,312.063V288.977L2165.3,287.8l-1.591,1.274v22.749" transform="translate(-20.203 -0.001)" fill="#d3bb0d"/>
    <path id="Path_901" data-name="Path 901" d="M2156.407,290.829h7.708l.008-1.515-.04-1.515h-7.6" transform="translate(-15.111 0)" fill="#d3bb0d"/>
  </g>
</svg>
