<svg xmlns="http://www.w3.org/2000/svg" width="378.239" height="131.978" viewBox="0 0 378.239 131.978">
  <g id="Group_447" data-name="Group 447" transform="translate(-2060.515 -273.336)">
    <g id="Group_444" data-name="Group 444" transform="translate(2060.515 373.09)">
      <g id="Group_443" data-name="Group 443" transform="translate(0 0)">
        <path id="Path_893" data-name="Path 893" d="M2270.205,304.845l-6.249,8.114h-11.145v23.084h-9.653V312.959h-14.644l6.25-8.114Z" transform="translate(-2228.514 -304.332)" fill="#fff"/>
        <path id="Path_894" data-name="Path 894" d="M2356.275,336.043h-12.918l-6.949-8.254h-14.83v8.254h-9.652V320.094h27.141c2.985,0,5.316-1.353,5.316-3.5,0-2.425-2.005-3.638-5.316-3.638h-27.141l6.3-8.114h20.053c7.088,0,16.042,2.239,16.042,11.145a9.769,9.769,0,0,1-8.161,9.887,39.884,39.884,0,0,1,4.382,4.1Z" transform="translate(-2258.065 -304.332)" fill="#fff"/>
        <path id="Path_895" data-name="Path 895" d="M2436.628,328.022l-6.2,8.021h-30.033v-31.2h36.142l-6.25,8.114h-20.193v3.73h24.715l-5.549,7.089h-19.166v4.244Z" transform="translate(-2289.406 -304.332)" fill="#fff"/>
        <path id="Path_896" data-name="Path 896" d="M2496.393,316.176c2.752,4.8,3.964,7.135,5.038,9.326,1.025-2.191,2.237-4.476,4.988-9.28l4.991-8.86a5.809,5.809,0,0,1,5.315-3.311,5.485,5.485,0,0,1,5.411,4.29l7.88,27.421h-9.607l-2.938-10.866c-.979-3.544-1.631-6.063-2.145-8.58-1.026,2.191-2.191,4.57-4.337,8.627l-4.2,7.835c-1.632,3.078-3.218,3.5-5.549,3.5s-3.918-.419-5.549-3.5l-4.2-7.881c-2.285-4.291-3.4-6.482-4.383-8.58-.467,2.471-1.166,5.082-2.1,8.58l-2.937,10.866h-9.467l8.067-27.421a5.535,5.535,0,0,1,5.457-4.29,5.715,5.715,0,0,1,5.27,3.311Z" transform="translate(-2314.991 -304.051)" fill="#fff"/>
        <path id="Path_897" data-name="Path 897" d="M2593.308,335.762l5.829-8.021h7.835c1.865,0,4.057,0,5.548.094-.839-1.12-2.144-3.032-3.17-4.523l-5.6-8.254-14.644,20.705h-11.425l20.006-28.214a7.465,7.465,0,0,1,6.25-3.5,7.237,7.237,0,0,1,6.156,3.5l19.493,28.214Z" transform="translate(-2352.217 -304.051)" fill="#fff"/>
        <path id="Path_898" data-name="Path 898" d="M2717.211,336.043h-14.6l-9.419-8.208c-3.218-2.8-4.711-4.151-5.783-5.223.046,1.446.14,2.984.14,4.477v8.954h-9.7v-31.2h9.7v7.228c0,1.912-.094,3.824-.187,5.456,1.212-1.119,2.892-2.705,5.736-5.083l9-7.6h13.99l-11.939,8.954a98.634,98.634,0,0,1-8.068,5.737c1.772,1.212,4.2,2.938,8.207,6.2Z" transform="translate(-2387.703 -304.332)" fill="#fff"/>
        <path id="Path_899" data-name="Path 899" d="M2794.392,328.022l-6.2,8.021h-30.033v-31.2H2794.3l-6.249,8.114h-20.193v3.73h24.716l-5.549,7.089h-19.166v4.244Z" transform="translate(-2416.153 -304.332)" fill="#fff"/>
      </g>
    </g>
    <g id="Group_448" data-name="Group 448" transform="translate(-2.054 -14.463)">
      <path id="Path_891" data-name="Path 891" d="M2176.232,319.432l-41.479-30.563V367.1l20.74-16.373V339.808l-11.279,7.156v-39.3l32.019,22.316Z" transform="translate(84.412 -0.058)" fill="#d3bb0d"/>
      <path id="Path_892" data-name="Path 892" d="M2158.988,336.516l42.125,31.534V287.8l-10.349,8.288v52.718l-31.775-24.187Z" transform="translate(83.099 0)" fill="#d3bb0d"/>
      <path id="Path_900" data-name="Path 900" d="M2174.053,363.751V291.485l-5.368-3.685-4.981,3.989V363" transform="translate(82.842 0)" fill="#d3bb0d"/>
      <path id="Path_901" data-name="Path 901" d="M2156.407,297.284h24.128l.024-4.743-.125-4.743h-23.778" transform="translate(83.239 0)" fill="#d3bb0d"/>
    </g>
  </g>
</svg>
